# xmcd
#
# Track frame offsets: 
#        150
#        16825
#        39430
#        58145
#        79782
#        97179
#        114892
#        134272
#        151387
#        174075
#        195292
#        213115
#        232175
#        252235
#        274890
#        299552
#
# Disc length: 4326 seconds
#
# Revision: 0
# Processed by: cddbd v1.5.1PL0 Copyright (c) Steve Scherf et al.
# Submitted via: ExactAudioCopy v0.95a5
#
DISCID=d910e410
DTITLE=Various Artist - Heart and Soul CD1
DYEAR=2004
DGENRE=R&B
TTITLE0=Jennifer Lopez - I'm Glad
TTITLE1=Beyoncé - Me, Myself And I
TTITLE2=Kelly Rowland - Stole
TTITLE3=Justin Timberlake - Cry Me A River
TTITLE4=Michael Jackson - Liberian Girl
TTITLE5=Destiny's Child - Emotion
TTITLE6=Janet Jackson - Every Time
TTITLE7=Usher - Nice and Slow
TTITLE8=TLC - Red Light Special
TTITLE9=En Vogue - Too Gone, Too Long
TTITLE10=Sugababes - Too Lost In You
TTITLE11=Macy Gray - Still
TTITLE12=Toni Braxton - You're Making Me High
TTITLE13=Brownstone - If You Love Me
TTITLE14=M People - Don't Look Any Further
TTITLE15=The Chimes - I Still Haven't Found What I'm Looking For
EXTD=
EXTT0=
EXTT1=
EXTT2=
EXTT3=
EXTT4=
EXTT5=
EXTT6=
EXTT7=
EXTT8=
EXTT9=
EXTT10=
EXTT11=
EXTT12=
EXTT13=
EXTT14=
EXTT15=
PLAYORDER=
